<svg enable-background="new 0 0 47.5 47.5" viewBox="0 0 47.5 47.5" xmlns="http://www.w3.org/2000/svg" xmlns:xlink="http://www.w3.org/1999/xlink"><clipPath id="a"><path d="m0 38h38v-38h-38z"/></clipPath><g clip-path="url(#a)" transform="matrix(1.25 0 0 -1.25 0 47.5)"><path d="m0 0c0-4.695-3.805-8.5-8.5-8.5s-8.5 3.805-8.5 8.5 3.805 8.5 8.5 8.5 8.5-3.805 8.5-8.5" fill="#4da7ff" transform="translate(18 27.5)"/><path d="m0 0c0-4.695-3.806-8.5-8.5-8.5s-8.5 3.805-8.5 8.5 3.806 8.5 8.5 8.5 8.5-3.805 8.5-8.5" fill="#4da7ff" transform="translate(37 27.5)"/><path d="m0 0c-1.264 1.621-3.229 2.667-5.443 2.667-3.814 0-6.907-3.093-6.907-6.907 0-2.773 1.639-5.157 3.996-6.256.71 4.196 3.984 8.673 8.354 10.496" fill="#1a4876" transform="translate(14.9121 31.146)"/><path d="m0 0c-2.214 0-4.18-1.046-5.443-2.667 4.369-1.823 7.643-6.3 8.353-10.496 2.358 1.099 3.996 3.484 3.996 6.257 0 3.813-3.093 6.906-6.906 6.906" fill="#1a4876" transform="translate(28.5313 33.8125)"/><path d="m0 0c-2 10.045-11.333 6.5-16 6.5s-14 3.545-16-6.5c-1.295-6.504 3.794-9.879 9.032-11.387 1.65-1.232 4.158-2.02 6.968-2.02 2.811 0 5.318.788 6.969 2.021 5.237 1.508 10.326 4.882 9.031 11.386" fill="#b6e9ff" transform="translate(35 14.4072)"/><path d="m0 0c0-11-5.641-6-12.6-6s-12.6-5-12.6 6c0 5.799 5.641 13 12.6 13s12.6-7.201 12.6-13" fill="#4da7ff" transform="translate(31.5996 19)"/><path d="m0 0c0-1.604-2.012-3.352-2.905-3.352-.894 0-2.906 1.748-2.906 3.352 0 1.605 1.788 1.956 2.906 1.956 1.117 0 2.905-.351 2.905-1.956" fill="#ff3860" transform="translate(21.9053 9.0439)"/><path d="m0 0c-5.245 3.146-12.355 2.175-12.656 2.133-.014-.002-.024-.011-.037-.013-.081-.015-.154-.048-.228-.081-.046-.021-.093-.035-.134-.061-.06-.04-.107-.092-.158-.144-.041-.041-.084-.076-.117-.123-.036-.052-.056-.111-.082-.17-.027-.062-.058-.121-.071-.189-.004-.016-.015-.029-.018-.045-.009-.055.006-.106.006-.16-.001-.048-.016-.094-.009-.145.002-.016.012-.027.015-.042.012-.069.041-.13.067-.193.025-.06.044-.121.079-.173.029-.044.068-.076.102-.115.053-.058.103-.115.168-.159.038-.026.083-.041.125-.061.074-.036.146-.071.228-.087.015-.003.027-.013.041-.016.056-.01 5.636-.976 8.365-4.613.196-.263.496-.4.8-.4.209 0 .419.065.599.2.442.331.532.958.2 1.399-1.108 1.479-2.573 2.567-4.025 3.369 1.88-.242 3.942-.764 5.711-1.826.161-.097.339-.142.513-.142.34 0 .671.172.859.485.284.474.131 1.088-.343 1.372" fill="#1458ab" transform="translate(36.5146 6.6973)"/><path d="m0 0c.034.052.053.111.077.169.027.064.055.124.068.193.003.016.013.029.016.044.007.053-.009.103-.009.155-.001.05.014.099.005.151-.003.016-.013.027-.016.043-.016.069-.046.131-.075.194-.025.057-.045.115-.08.165-.032.047-.075.082-.115.123-.051.053-.099.106-.16.146-.041.025-.087.039-.131.059-.075.035-.147.067-.23.081-.014.003-.024.012-.037.014-.302.042-7.413 1.014-12.657-2.133-.473-.284-.627-.898-.343-1.372.188-.312.519-.485.859-.485.175 0 .352.046.514.142 1.768 1.061 3.83 1.583 5.709 1.826-1.452-.802-2.916-1.89-4.024-3.369-.331-.441-.242-1.068.2-1.399.18-.135.39-.2.599-.2.304 0 .604.138.801.4 2.717 3.622 8.309 4.604 8.365 4.614.015.002.026.011.04.015.077.016.145.049.215.082.048.023.098.039.141.07.059.04.104.092.153.143.04.043.083.08.115.129" fill="#1458ab" transform="translate(14.8291 7.293)"/><g fill="#272b2b"><path d="m0 0s0 2 2 2 2-2 2-2v-2s0-2-2-2-2 2-2 2z" transform="translate(11 17)"/><path d="m0 0s0 2 2 2 2-2 2-2v-2s0-2-2-2-2 2-2 2z" transform="translate(23 17)"/></g></g></svg>